<mxfile host="app.diagrams.net" modified="2020-12-07T12:10:34.519Z" agent="5.0 (Windows)" etag="4Nq1qjDGVipSF-oKJ0pg" version="13.10.9" type="github">
  <diagram id="TfBRKVqigtajWfXstnEd" name="Page-1">
    <mxGraphModel dx="1038" dy="547" grid="1" gridSize="10" guides="1" tooltips="1" connect="1" arrows="1" fold="1" page="1" pageScale="1" pageWidth="1169" pageHeight="827" math="0" shadow="0">
      <root>
        <mxCell id="0" />
        <mxCell id="1" parent="0" />
        <mxCell id="GDgMGsqKDlrENk5VtVOn-1" value="CONTRACT MANAGEMENT" style="swimlane;" vertex="1" parent="1">
          <mxGeometry x="10" y="10" width="1150" height="810" as="geometry" />
        </mxCell>
        <mxCell id="GDgMGsqKDlrENk5VtVOn-2" value="Start" style="rounded=1;whiteSpace=wrap;html=1;" vertex="1" parent="GDgMGsqKDlrENk5VtVOn-1">
          <mxGeometry x="190" y="40" width="90" height="50" as="geometry" />
        </mxCell>
        <mxCell id="GDgMGsqKDlrENk5VtVOn-5" value="" style="rounded=0;whiteSpace=wrap;html=1;" vertex="1" parent="GDgMGsqKDlrENk5VtVOn-1">
          <mxGeometry x="175" y="180" width="120" height="60" as="geometry" />
        </mxCell>
        <mxCell id="GDgMGsqKDlrENk5VtVOn-4" value="" style="edgeStyle=orthogonalEdgeStyle;rounded=0;orthogonalLoop=1;jettySize=auto;html=1;" edge="1" parent="GDgMGsqKDlrENk5VtVOn-1" source="GDgMGsqKDlrENk5VtVOn-2" target="GDgMGsqKDlrENk5VtVOn-5">
          <mxGeometry relative="1" as="geometry">
            <mxPoint x="235" y="165" as="targetPoint" />
          </mxGeometry>
        </mxCell>
      </root>
    </mxGraphModel>
  </diagram>
</mxfile>
